# xmcd
#
# Track frame offsets:
# 150
# 16891
# 33723
# 53056
# 66483
# 83333
# 101026
# 117497
# 134071
# 149383
# 163002
# 179639
#
# Disc length: 2565 seconds
#
#
# Revision: 4
# Processed by: cddbd v1.5.2PL0 Copyright (c) Steve Scherf et al.
# Submitted via: FreeRIP 2.70 
#
DISCID=b00a030c
DTITLE=Bruno E Marrone - O Melhor De Bruno E Marrone
DYEAR=2002
DGENRE=Sertanejo (BR)
TTITLE0=Por Um Minuto (Acústico)
TTITLE1=Agarrada Em Mim (Acústico)
TTITLE2=Meu Jeito De Sentir
TTITLE3=Vivendo De Passado
TTITLE4=Como Eu Te Amo
TTITLE5=A Solidão É Uma Ressaca (Acústico - Ao Vivo)
TTITLE6=Que Pena
TTITLE7=Vida Vazia (Acústico)
TTITLE8=Tchau Amor
TTITLE9=Amor De Carnaval (Acústico - Ao Vivo)
TTITLE10=Um Bom Perdedor (Acústico - Ao Vivo)
TTITLE11=Feriado Nacional (Acústico - Ao Vivo)
EXTD=YEAR: 2002
EXTT0=
EXTT1=
EXTT2=
EXTT3=
EXTT4=
EXTT5=
EXTT6=
EXTT7=
EXTT8=
EXTT9=
EXTT10=
EXTT11=
PLAYORDER=
